<svg width="28" height="33" viewBox="0 0 28 33" fill="none" xmlns="http://www.w3.org/2000/svg">
<path d="M15.3789 17.0207C12.5767 12.1672 13.0946 7.83284 13.5069 5.05265L13.5498 4.76563C13.6361 4.19097 13.7192 3.63777 13.7473 3.18741C13.764 2.92021 13.7665 2.62665 13.7206 2.34451C13.6755 2.06714 13.5672 1.69634 13.2761 1.38277C12.6149 0.670384 11.6863 0.868151 11.1848 1.02834C10.5888 1.21871 9.84393 1.59681 8.94019 2.11859C1.22772 6.57138 -1.41476 16.4333 3.03803 24.1457C7.49083 31.8582 17.3527 34.5007 25.0652 30.0479C25.9689 29.5261 26.6688 29.0701 27.1317 28.6492C27.5212 28.2949 28.1567 27.5896 27.8704 26.6608C27.7444 26.252 27.4774 25.9727 27.2598 25.795C27.0383 25.6142 26.7829 25.4696 26.5431 25.3504C26.139 25.1496 25.6185 24.945 25.0777 24.7324L24.8076 24.626C22.1937 23.5929 18.1811 21.8743 15.3789 17.0207Z" fill="url(#paint0_linear_574_657)"/>
<defs>
<linearGradient id="paint0_linear_574_657" x1="8.75681" y1="0.87561" x2="25.2257" y2="29.6192" gradientUnits="userSpaceOnUse">
<stop stop-color="#8BD0FC"/>
<stop offset="1" stop-color="#8BD0FC" stop-opacity="0.2"/>
</linearGradient>
</defs>
</svg>
